<?xml version="1.0" encoding="iso-8859-1"?>
<!-- Uploaded to: SVG Repo, www.svgrepo.com, Generator: SVG Repo Mixer Tools -->
<!DOCTYPE svg PUBLIC "-//W3C//DTD SVG 1.1//EN" "http://www.w3.org/Graphics/SVG/1.1/DTD/svg11.dtd">
<svg fill="#000000" height="800px" width="800px" version="1.1" id="Capa_1" xmlns="http://www.w3.org/2000/svg" xmlns:xlink="http://www.w3.org/1999/xlink" 
	 viewBox="0 0 297 297" xml:space="preserve">
<path d="M297,163.841c0-17.382-14.141-31.523-31.523-31.523c-5.967,0-11.552,1.667-16.315,4.56c2.893-4.762,4.56-10.348,4.56-16.316
	c0-17.381-14.141-31.522-31.523-31.522c-4.814,0-9.377,1.088-13.462,3.026c-14.002-45.177-0.043-73.877,0.619-75.192
	c2.48-4.837,0.588-10.772-4.241-13.28c-4.845-2.517-10.811-0.627-13.326,4.217c-0.744,1.433-16.805,33.328-4.091,82.481
	c-1.992-0.579-4.065-0.96-6.196-1.136c-1.613-10.193-4.616-21.442-8.663-36.587c-2.381-8.911-5.081-19.009-8.148-31.259
	c-1.101-4.398-5.054-7.483-9.587-7.483H27.743c-4.533,0-8.486,3.085-9.587,7.483c-3.067,12.249-5.767,22.348-8.148,31.259
	C3.767,75.921,0,90.016,0,105.25c0,47.072,35.76,85.943,81.539,90.887v62.308H58.807c-5.458,0-9.884,4.425-9.884,9.884
	s4.425,9.884,9.884,9.884h65.231c5.458,0,9.884-4.425,9.884-9.884s-4.425-9.884-9.884-9.884h-22.732V196.12
	c6.816-0.74,13.414-2.216,19.701-4.373c4.377,2.304,9.354,3.616,14.634,3.616c0.574,0,1.144-0.018,1.711-0.048
	c-7.072,5.786-11.595,14.575-11.595,24.404c0,17.382,14.141,31.523,31.523,31.523c5.968,0,11.553-1.667,16.316-4.56
	c-2.892,4.762-4.56,10.348-4.56,16.315c0,17.382,14.141,31.523,31.522,31.523c17.382,0,31.523-14.141,31.523-31.523
	c0-5.967-1.667-11.552-4.56-16.315c4.763,2.892,10.348,4.56,16.316,4.56c17.381,0,31.522-14.141,31.522-31.523
	c0-9.828-4.523-18.618-11.594-24.404c0.567,0.03,1.137,0.048,1.711,0.048C282.859,195.363,297,181.222,297,163.841z M29.104,57.673
	c1.899-7.107,4-14.964,6.333-24.079h111.971c2.333,9.114,4.433,16.972,6.333,24.079c0.469,1.756,0.919,3.44,1.355,5.078H27.749
	C28.185,61.115,28.635,59.428,29.104,57.673z M104.119,163.841c0,4.056,0.779,7.932,2.18,11.496
	c-4.802,1.019-9.775,1.568-14.876,1.568c-39.511,0-71.656-32.145-71.656-71.656c0-7.05,1.033-14.03,2.99-22.732h137.33
	c0.92,4.094,1.637,7.807,2.137,11.325c-8.896,5.579-14.826,15.467-14.826,26.719c0,5.968,1.667,11.553,4.56,16.316
	c-4.763-2.893-10.348-4.56-16.316-4.56C118.26,132.318,104.119,146.459,104.119,163.841z M135.642,175.596
	c-6.482,0-11.756-5.273-11.756-11.755c0-6.482,5.274-11.756,11.756-11.756c6.482,0,11.756,5.274,11.756,11.756
	C147.398,170.323,142.124,175.596,135.642,175.596z M157.281,231.475c-6.482,0-11.756-5.274-11.756-11.756
	c0-6.482,5.274-11.756,11.756-11.756s11.756,5.274,11.756,11.756C169.037,226.201,163.763,231.475,157.281,231.475z
	 M169.037,176.441c0,5.967,1.667,11.552,4.56,16.315c-4.763-2.892-10.348-4.56-16.316-4.56c-0.574,0-1.144,0.018-1.711,0.048
	c7.072-5.786,11.595-14.575,11.595-24.403c0-2.229-0.233-4.403-0.675-6.502c1.44-2.069,2.791-4.202,4.06-6.39
	c2.668,0.736,5.473,1.136,8.372,1.136c0.574,0,1.144-0.018,1.711-0.048C173.56,157.823,169.037,166.612,169.037,176.441z
	 M178.921,132.318c-6.482,0-11.756-5.274-11.756-11.756c0-6.482,5.274-11.755,11.756-11.755c6.482,0,11.755,5.273,11.755,11.755
	C190.676,127.044,185.403,132.318,178.921,132.318z M200.559,274.753c-6.482,0-11.755-5.274-11.755-11.756
	c0-3.875,1.892-7.306,4.792-9.449c2.242,0.508,4.57,0.785,6.963,0.785c2.393,0,4.722-0.277,6.964-0.785
	c2.9,2.143,4.792,5.575,4.792,9.449C212.315,269.479,207.042,274.753,200.559,274.753z M200.559,234.565
	c-6.482,0-11.755-5.273-11.755-11.755s5.273-11.756,11.755-11.756s11.756,5.274,11.756,11.756S207.042,234.565,200.559,234.565z
	 M200.559,188.196c-6.482,0-11.755-5.273-11.755-11.755c0-6.482,5.273-11.756,11.755-11.756s11.756,5.274,11.756,11.756
	C212.315,182.923,207.042,188.196,200.559,188.196z M210.443,120.562c0-6.482,5.274-11.755,11.756-11.755
	c6.482,0,11.756,5.273,11.756,11.755c0,6.482-5.274,11.756-11.756,11.756C215.717,132.318,210.443,127.044,210.443,120.562z
	 M220.488,152.037c0.567,0.03,1.137,0.048,1.711,0.048c5.968,0,11.553-1.667,16.316-4.56c-2.893,4.763-4.56,10.348-4.56,16.316
	c0,9.828,4.523,18.617,11.594,24.403c-0.567-0.03-1.137-0.048-1.711-0.048c-5.968,0-11.553,1.667-16.316,4.56
	c2.893-4.762,4.56-10.348,4.56-16.315C232.082,166.612,227.56,157.823,220.488,152.037z M243.838,231.475
	c-6.482,0-11.756-5.274-11.756-11.756c0-6.482,5.274-11.756,11.756-11.756s11.755,5.274,11.755,11.756
	C255.593,226.201,250.321,231.475,243.838,231.475z M253.722,163.841c0-6.482,5.273-11.756,11.755-11.756
	s11.756,5.274,11.756,11.756c0,6.482-5.274,11.755-11.756,11.755S253.722,170.323,253.722,163.841z"/>
</svg>